<svg xmlns="http://www.w3.org/2000/svg" width="14.256" height="9.789" viewBox="0 0 14.256 9.789">
  <path id="Vector" d="M.342,8.334A.316.316,0,0,1,.166,8.28.368.368,0,0,1,.04,8.132a.42.42,0,0,1-.04-.2.413.413,0,0,1,.058-.194L4.61.169A.359.359,0,0,1,4.733.045a.311.311,0,0,1,.322,0,.359.359,0,0,1,.123.124l4.553,7.57a.413.413,0,0,1,.058.194.42.42,0,0,1-.04.2.368.368,0,0,1-.126.148.316.316,0,0,1-.176.055h-2.4v5.54a.406.406,0,0,1-.1.27.325.325,0,0,1-.242.112H3.087a.325.325,0,0,1-.242-.112.406.406,0,0,1-.1-.27V8.334Z" transform="translate(0 9.789) rotate(-90)" fill="#fff"/>
</svg>
