<svg xmlns="http://www.w3.org/2000/svg" width="10.777" height="12.566" viewBox="0 0 10.777 12.566">
  <path id="Vector" d="M.377,7.346A.411.411,0,0,1,.183,7.3a.357.357,0,0,1-.139-.13A.308.308,0,0,1,0,6.992a.314.314,0,0,1,.063-.171L5.075.149A.366.366,0,0,1,5.211.04a.416.416,0,0,1,.354,0A.365.365,0,0,1,5.7.149l5.012,6.672a.314.314,0,0,1,.063.171.308.308,0,0,1-.044.176.357.357,0,0,1-.139.13.411.411,0,0,1-.194.048H7.754v4.883a.32.32,0,0,1-.11.238.4.4,0,0,1-.266.1H3.4a.4.4,0,0,1-.266-.1.32.32,0,0,1-.11-.238V7.346Z" transform="translate(0 0)" fill="#fff"/>
</svg>
